HIERARCHY
ROOT Hips
{
	OFFSET 0.000000 0.000000 0.000000 
	CHANNELS 6 Xposition Yposition Zposition Zrotation Yrotation Xrotation
	JOINT LeftUpLeg
	{
		OFFSET 1.363060 -1.794630 0.839290 
		CHANNELS 3 Zrotation Yrotation Xrotation
		JOINT LeftLeg
		{
			OFFSET 2.448110 -6.726130 0.000000 
			CHANNELS 3 Zrotation Yrotation Xrotation
			JOINT LeftFoot
			{
				OFFSET 2.562200 -7.039590 0.000000 
				CHANNELS 3 Zrotation Yrotation Xrotation
				JOINT LeftToeBase
				{
					OFFSET 0.157640 -0.433110 2.322550 
					CHANNELS 3 Zrotation Yrotation Xrotation
					End Site
					{
						OFFSET 0.000000 0.000000 0.000000 
					}
				}
			}
		}
	}
	JOINT RightUpLeg
	{
		OFFSET -1.305520 -1.794630 0.839290 
		CHANNELS 3 Zrotation Yrotation Xrotation
		JOINT RightLeg
		{
			OFFSET -2.542530 -6.985550 0.000000 
			CHANNELS 3 Zrotation Yrotation Xrotation
			JOINT RightFoot
			{
				OFFSET -2.568260 -7.056230 0.000000 
				CHANNELS 3 Zrotation Yrotation Xrotation
				JOINT RightToeBase
				{
					OFFSET -0.164730 -0.452590 2.363150 
					CHANNELS 3 Zrotation Yrotation Xrotation
					End Site
					{
						OFFSET 0.000000 0.000000 0.000000 
					}
				}
			}
		}
	}
	JOINT Spine
	{
		OFFSET 0.028270 2.035590 -0.193380 
		CHANNELS 3 Zrotation Yrotation Xrotation
		JOINT Spine1
		{
			OFFSET 0.056720 2.048850 -0.042750 
			CHANNELS 3 Zrotation Yrotation Xrotation
			JOINT Neck1
			{
				OFFSET -0.054170 1.746240 0.172020 
				CHANNELS 3 Zrotation Yrotation Xrotation
				JOINT Head
				{
					OFFSET 0.104070 1.761360 -0.123970 
					CHANNELS 3 Zrotation Yrotation Xrotation
					End Site
					{
						OFFSET 0.000000 0.000000 0.000000 
					}
				}
			}
			JOINT LeftArm
			{
				OFFSET 3.362410 1.200890 -0.311210 
				CHANNELS 3 Zrotation Yrotation Xrotation
				JOINT LeftForeArm
				{
					OFFSET 4.983000 -0.000000 -0.000000 
					CHANNELS 3 Zrotation Yrotation Xrotation
					JOINT LeftHand
					{
						OFFSET 3.483560 -0.000000 -0.000000 
						CHANNELS 3 Zrotation Yrotation Xrotation
						JOINT LeftHandIndex1
						{
							OFFSET 0.715260 -0.000000 -0.000000 
							CHANNELS 3 Zrotation Yrotation Xrotation
							End Site
							{
								OFFSET 0.000000 0.000000 0.000000 
							}
						}
					}
				}
			}
			JOINT RightArm
			{
				OFFSET -3.136600 1.374050 -0.404650 
				CHANNELS 3 Zrotation Yrotation Xrotation
				JOINT RightForeArm
				{
					OFFSET -5.241900 -0.000000 -0.000000 
					CHANNELS 3 Zrotation Yrotation Xrotation
					JOINT RightHand
					{
						OFFSET -3.444170 -0.000000 -0.000000 
						CHANNELS 3 Zrotation Yrotation Xrotation
						JOINT RightHandIndex1
						{
							OFFSET -0.622530 -0.000000 -0.000000 
							CHANNELS 3 Zrotation Yrotation Xrotation
							End Site
							{
								OFFSET 0.000000 0.000000 0.000000 
							}
						}
					}
				}
			}
		}
	}
}
MOTION
Frames: 6
Frame Time: 0.041667
9.254247 18.328775 -44.845643 -3.432679 -20.579288 5.989438 -15.999071 -18.292605 -10.268615 -1.124633 9.841972 30.018290 5.374081 -22.244007 19.279146 0.929700 6.142400 17.198100 25.172954 15.868766 -8.338207 0.757202 -10.171390 29.633593 5.638808 -19.521654 -4.133564 -0.644600 5.136000 -14.297000 4.341008 0.836383 1.118446 -3.446272 0.127160 -12.105166 5.497243 5.856547 9.223290 -0.829500 3.117700 3.733900 -77.149267 -14.448782 37.687464 41.999224 -40.407739 -18.100814 0.196858 0.812503 -0.988294 -7.125000 0.000000 0.000000 76.618142 -8.896254 31.688554 -31.124128 34.627076 -11.217133 0.940295 0.424772 6.628116 7.125000 0.000000 0.000000 
9.204568 18.326769 -44.865467 -3.421578 -18.795051 6.057662 -15.976458 -17.100842 -11.097154 -0.926781 10.119613 30.618648 5.491221 -21.924685 17.638305 0.473500 4.413100 12.242000 25.465482 15.648111 -8.161747 0.840477 -10.059378 29.326616 5.946057 -20.459795 -4.884819 -0.637500 5.108400 -14.217900 4.095936 0.933270 1.793421 -3.555657 0.214228 -11.527966 6.078694 4.985852 8.816803 -0.565700 2.663600 3.568100 -76.764694 -14.778107 38.921296 41.982563 -40.384814 -18.139064 0.253323 0.806124 -1.181971 -7.125000 0.000000 0.000000 76.478675 -8.328859 30.932825 -30.290751 33.862876 -10.731915 0.963339 0.434452 6.607427 7.125000 0.000000 0.000000 
9.159373 18.318745 -44.877858 -3.324842 -17.072656 6.138569 -16.136068 -15.899984 -11.891768 -0.669590 10.459919 31.306756 5.652804 -21.247695 15.097248 0.017600 0.856900 2.355100 25.621506 15.358998 -7.999108 0.930265 -9.938586 29.001115 6.208155 -21.253193 -5.652448 -0.609500 4.997000 -13.900000 3.912144 1.051974 1.377240 -3.597789 0.271617 -11.867111 6.599489 4.047408 9.051206 -0.330800 2.217600 3.599300 -76.750896 -13.939106 39.931213 42.111605 -40.501567 -18.311687 0.286996 0.793708 -1.312071 -7.125000 0.000000 0.000000 76.374607 -8.729863 30.786399 -29.487309 33.098579 -10.230035 0.989077 0.432880 6.044949 7.125000 0.000000 0.000000 
9.124562 18.310131 -44.892962 -3.225114 -15.101709 6.305192 -16.177126 -15.174694 -12.783825 -0.567961 10.677722 31.823227 5.612372 -21.278827 15.279886 0.259700 3.278400 9.054700 25.713649 14.772959 -8.092836 1.022262 -9.818238 28.641081 6.519925 -22.183365 -6.314015 -0.658000 5.188300 -14.446500 3.664013 0.996084 1.366438 -3.736897 0.249969 -11.780838 7.069413 3.196994 8.931327 -0.112500 1.789800 3.534900 -76.566270 -13.456912 40.648337 42.252933 -40.604391 -18.458551 0.289115 0.794121 -1.643092 -7.125000 0.000000 0.000000 76.200148 -8.695426 30.580757 -28.637111 32.300409 -9.787878 1.002086 0.463966 4.976636 7.125000 0.000000 0.000000 
9.088689 18.299511 -44.903936 -3.078552 -13.291331 6.463159 -16.298379 -14.253381 -13.656987 -0.400586 10.941103 32.397914 5.669810 -21.230822 14.368932 0.227000 3.066500 8.463800 25.768756 14.297708 -8.135413 1.116159 -9.697208 28.297223 6.802698 -23.027612 -7.113626 -0.643000 5.129900 -14.279300 3.299802 1.007474 1.264750 -3.904746 0.257287 -11.794847 7.494680 2.397984 8.652074 0.069000 1.379800 3.405400 -76.269598 -13.003684 41.308404 42.303447 -40.653450 -18.531955 0.298330 0.795733 -1.819890 -7.125000 0.000000 0.000000 76.107692 -8.759926 30.380768 -27.757298 31.429714 -9.304295 1.028442 0.470260 3.943531 7.125000 0.000000 0.000000 
9.039718 18.288418 -44.919867 -2.911986 -11.610599 6.571068 -16.391224 -13.044033 -14.490418 -0.146974 11.248119 32.996982 5.907016 -21.130203 11.946515 0.019400 -0.900100 -2.474100 25.920173 14.217919 -7.914062 1.228342 -9.559824 27.958892 7.027950 -23.743700 -8.325004 -0.488000 4.479100 -12.428600 2.811768 1.064680 1.042366 -4.028642 0.287524 -12.036978 7.890236 1.554009 8.546582 0.216500 0.962200 3.360100 -75.841541 -12.424566 41.945211 42.192832 -40.605633 -18.477002 0.316191 0.796690 -1.496772 -7.125000 0.000000 0.000000 76.238029 -8.707449 29.269227 -27.332671 30.989676 -9.016707 1.042532 0.444009 7.189767 7.125000 0.000000 0.000000 
